# xmcd CD database file
#
# Track frame offsets:
#	150
#	16442
#	53756
#	79582
#	97688
#	136350
#	162618
#	182403
#
# Disc length: 2762 seconds
#
# Revision: 1
# Processed by: cddbd v1.5.1PL2 Copyright (c) Steve Scherf et al.
# Submitted via: CDex 1.51
#
DISCID=580ac808
DTITLE=Fuzzy Logic Ensemble - New Hat
DYEAR=2005
DGENRE=Jazz
TTITLE0=Happy New Year
TTITLE1=Reflected Reasoning
TTITLE2=No Fehr
TTITLE3=AKA
TTITLE4=Natalis Musica
TTITLE5=In Case You Forget
TTITLE6=Inside
TTITLE7=Un Cubo
EXTD=YEAR: 2005
EXTT0=
EXTT1=
EXTT2=
EXTT3=
EXTT4=
EXTT5=
EXTT6=
EXTT7=
PLAYORDER=
